<svg xmlns="http://www.w3.org/2000/svg" width="150" height="126.911" version="1.0"><path d="M138.466 80.767H11.534v11.534h126.932V80.767z" opacity=".45" fill="#01a6e0"/><path d="M138.466 0H11.534v11.564h126.932V0z" opacity=".5" fill="#f8a71a"/><path d="M126.912 11.55H23.078V.013h103.834V11.55z" fill="#f8a71a"/><path d="M23.062 80.782v11.523h23.083v11.56h11.561v11.524H69.23V92.305h57.69V80.782H23.062zm46.167 34.607v11.522h11.523V115.39H69.229z" fill="#01a6e0"/><path d="M138.466 80.767h-11.564V11.564h11.564v69.203z" fill="#eb5c94"/><path d="M150 11.564h-11.534v69.203H150V11.564z" opacity=".44" fill="#eb5c94"/><path d="M23.068 80.767H11.534V11.564h11.534v69.203z" fill="#4bba44"/><path d="M11.534 11.564H0v69.203h11.534V11.564z" opacity=".5" fill="#4bba44"/><path d="M126.912 80.774H23.078V11.55h103.834v69.224z" fill="#244aa5"/><path d="M74.99 19.454l-.947 2.994h-3.146l2.54 1.857-.948 2.957 2.501-1.82 2.54 1.82-.948-2.957 2.54-1.857h-3.146l-.986-2.994zm-11.37 3.032l-.986 3.032h-3.146l2.54 1.857-.948 2.957 2.54-1.857 2.5 1.857-.947-2.957 2.54-1.857h-3.146l-.948-3.032zm22.817.038l-.947 2.994h-3.184l2.577 1.857-.985 2.957 2.54-1.857 2.501 1.857-.948-2.957 2.578-1.857h-3.184l-.948-2.994zm8.34 8.3l-.986 3.033h-3.146l2.577 1.82-.985 2.994 2.54-1.857 2.5 1.857-.947-2.995 2.54-1.819h-3.146l-.948-3.032zm-39.535.039l-.947 3.032h-3.146l2.54 1.82-.948 2.956 2.501-1.82 2.54 1.82-.948-2.957 2.54-1.82h-3.146l-.986-3.031zm-3.032 11.37l-.985 3.033h-3.146l2.577 1.82-.986 2.994 2.54-1.857 2.502 1.857-.948-2.994 2.54-1.82h-3.146l-.948-3.032zm45.599 0l-.986 2.995h-3.146l2.54 1.82-.948 2.994 2.54-1.857 2.501 1.857-.947-2.994 2.54-1.82h-3.147l-.947-2.994zM55.242 53.682l-.947 2.994h-3.146l2.54 1.858-.948 2.956 2.501-1.82 2.54 1.82-.948-2.956 2.54-1.858h-3.146l-.986-2.994zm39.534 0l-.985 2.994h-3.146l2.577 1.858-.985 2.956 2.54-1.82 2.5 1.82-.947-2.956 2.54-1.858h-3.146l-.948-2.994zM63.62 62.02l-.947 3.032h-3.184l2.577 1.82-.948 2.994 2.502-1.857 2.54 1.857-.986-2.995 2.578-1.819h-3.146l-.986-3.032zm22.78 0l-.947 3.032h-3.184l2.577 1.82-.947 2.994 2.501-1.857 2.54 1.857-.985-2.995 2.577-1.819h-3.146L86.4 62.02zm-11.37 3.032l-.986 2.994h-3.146l2.54 1.858-.948 2.956 2.54-1.82 2.5 1.82-.947-2.956 2.54-1.858h-3.146l-.948-2.994z" fill="#fedd03"/></svg>