<svg version="1.1" id="Layer_1" xmlns="http://www.w3.org/2000/svg" x="0" y="0" viewBox="0 0 110.7 93.8" xml:space="preserve"><style>.st1{opacity:.5}.st1,.st2{fill:#69c}</style><linearGradient id="SVGID_1_" gradientUnits="userSpaceOnUse" x1="-179.426" y1="474.498" x2="-178.719" y2="473.791"><stop offset="0" stop-color="#249e2e"/><stop offset=".983" stop-color="#1c371d"/></linearGradient><path opacity=".5" fill="#390" d="M8.7 59.7h93.5v8.5H8.7z"/><path class="st1" d="M8.7.2h93.5v8.5H8.7z"/><path class="st2" d="M17.2.2h76.5v8.5H17.2z"/><path fill="#007d64" d="M93.7 8.7h8.5v51h-8.5z"/><path opacity=".5" fill="#007d64" d="M102.2 8.7h8.5v51h-8.5z"/><path class="st2" d="M8.7 8.7h8.5v51H8.7z"/><path class="st1" d="M.2 8.7h8.5v51H.2z"/><path d="M51.2 68.2h42.5v-8.5H17.2v8.5h17v8.5h8.5v8.5h8.5zm0 17h8.5v8.5h-8.5z" fill="#390"/><path fill="#039" d="M17.2 8.7h76.5v51H17.2z"/><path d="M53.6 20.3l1.9-1.4 1.8 1.4-.7-2.2 1.9-1.4h-2.3l-.7-2.2-.7 2.2h-2.4l1.9 1.4zm-8.4 2.2l1.9-1.3 1.8 1.3-.7-2.2 1.9-1.3h-2.3l-.7-2.2-.7 2.2H44l1.9 1.3zm-4.3.4l-.7 2.2h-2.3l1.9 1.4-.7 2.2 1.8-1.4 1.9 1.4-.7-2.2 1.9-1.4h-2.4zm-2.2 12.8l1.8 1.4-.7-2.2 1.9-1.4h-2.3l-.7-2.2-.8 2.2h-2.3l1.9 1.4-.7 2.2zm2.9 6.2l-.7-2.2-.7 2.2h-2.3l1.9 1.4-.7 2.2 1.8-1.4 1.9 1.4-.7-2.2 1.9-1.4zm6.2 6.2l-.7-2.2-.7 2.2H44l1.9 1.4-.7 2.1 1.9-1.3 1.8 1.3-.7-2.1 1.9-1.4zm8.4 2.2l-.7-2.2-.7 2.2h-2.4l1.9 1.4-.7 2.2 1.9-1.4 1.8 1.4-.7-2.2 1.9-1.4zm8.4-2.2l-.7-2.2-.7 2.2h-2.4l1.9 1.4-.7 2.1 1.9-1.3 1.8 1.3-.7-2.1 1.9-1.4zm6.1-6.2l-.7-2.2-.7 2.2H67l1.9 1.4-.7 2.2 1.8-1.4 1.9 1.4-.7-2.2 1.9-1.4zm4.6-8.4H73l-.7-2.2-.7 2.2h-2.4l1.9 1.4-.7 2.1 1.9-1.3 1.8 1.3-.7-2.1zm-7.1-4.8l1.8-1.4 1.9 1.4-.7-2.2 1.9-1.4h-2.4l-.7-2.2-.7 2.2H67l1.9 1.4zm-4.3-11.9l-.7 2.2h-2.3l1.8 1.3-.7 2.2 1.9-1.3 1.9 1.3-.8-2.2 1.9-1.3h-2.3z" fill="#fc0"/></svg>