<svg width="16" height="16" viewBox="0 0 16 16" fill="none" xmlns="http://www.w3.org/2000/svg"><g clip-path="url(#clip0_3405_2583)" fill="#333"><path d="M1.917 3.775c1.192 0 1.932-.782 1.932-1.756-.025-.993-.747-1.75-1.913-1.75C.771.269.004 1.026.004 2.025c0 .974.74 1.757 1.887 1.757h.026v-.007zM3.624 15.32V5.162H.21V15.32h3.414zm1.887-.001h3.414v-5.67a2.268 2.268 0 01.11-.821c.244-.605.811-1.235 1.752-1.235 1.236 0 1.732.93 1.732 2.298v5.434h3.414V9.496c0-3.118-1.688-4.569-3.936-4.569-1.842 0-2.653 1.018-3.098 1.712h.026V5.163H5.511c.045.954 0 10.156 0 10.156z"/></g><defs><clipPath id="clip0_3405_2583"><path fill="#fff" d="M0 0h16v16H0z"/></clipPath></defs></svg>