<svg width="172" height="48" viewBox="0 0 172 48" xmlns="http://www.w3.org/2000/svg"><desc>Created with Sketch.</desc><g fill="none"><path fill="#039" d="M0 0h72v48H0z"/><path d="M35.06 8.91L33.54 7.8h1.88L36 6l.58 1.8h1.88l-1.52 1.11.58 1.81L36 9.6l-1.52 1.12.58-1.81zm1.88 31.29l.58 1.8L36 40.89 34.48 42l.58-1.8-1.52-1.11h1.88l.58-1.81.58 1.81h1.88l-1.52 1.11zm-16.48-15l-1.52 1.12.58-1.8L18 23.44h1.88l.58-1.8.58 1.8h1.89l-1.53 1.12.58 1.8-1.52-1.12v-.04zM29.17 11l.58 1.8-1.52-1.1-1.52 1.11.58-1.8-1.52-1.11h1.88l.58-1.8.58 1.8h1.88L29.17 11zM22 15.62l.58-1.8.59 1.8H25l-1.52 1.12.58 1.8-1.53-1.12L21 18.54l.58-1.8-1.52-1.12H22zm-1.92 15.64H22l.58-1.8.59 1.8H25l-1.52 1.12.58 1.8-1.53-1.11L21 34.18l.58-1.8-1.52-1.12h.02zm7.21 6.84L25.77 37h1.88l.58-1.8.58 1.8h1.88l-1.52 1.1.58 1.8-1.52-1.11-1.52 1.11.58-1.8zm25.19-13.54l.58 1.8-1.52-1.12L50 26.36l.58-1.8-1.53-1.12H51l.58-1.8.58 1.8H54l-1.52 1.12zM42.83 11l-1.52-1.1h1.88l.58-1.8.58 1.8h1.88L44.71 11l.58 1.8-1.52-1.1-1.52 1.11.58-1.8V11zm6 4.61l.59-1.8.58 1.8h1.88l-1.48 1.13.58 1.8-1.52-1.12-1.53 1.12.58-1.8L47 15.62l1.83-.01zM50 31.26h1.88l-1.48 1.12.58 1.8-1.52-1.11-1.53 1.11.58-1.8L47 31.26h1.88l.59-1.8.58 1.8H50zM46.23 37l-1.52 1.1.58 1.8-1.52-1.11-1.52 1.11.58-1.8-1.52-1.1h1.88l.58-1.8.58 1.8h1.88z" fill="#FC0"/><path d="M84 27.69h2.89v7.75a16.37 16.37 0 00.11 2.4 2.35 2.35 0 00.88 1.41 3.12 3.12 0 001.91.53 3 3 0 001.86-.5 2.06 2.06 0 00.77-1.28 17 17 0 00.12-2.43v-7.88h2.9v7.52a18.84 18.84 0 01-.24 3.64 4.08 4.08 0 01-.86 1.8 4.4 4.4 0 01-1.69 1.17 7.51 7.51 0 01-2.75.43 8 8 0 01-3.11-.47 4.53 4.53 0 01-1.68-1.23A4 4 0 0184.3 39a17.33 17.33 0 01-.3-3.67v-7.64zM107.3 42h-2.75v-5.3a8.59 8.59 0 00-.17-2.17 1.6 1.6 0 00-.57-.77 1.69 1.69 0 00-1-.27 2.22 2.22 0 00-1.28.39 2 2 0 00-.77 1 8.92 8.92 0 00-.21 2.38V42h-2.71V31.63h2.55v1.53a4.17 4.17 0 013.42-1.76 4.07 4.07 0 011.66.33 2.8 2.8 0 011.14.83c.252.344.432.735.53 1.15a8 8 0 01.16 1.85V42zm2.28-11.77v-2.54h2.74v2.54h-2.74zm0 11.78V31.63h2.74V42l-2.74.01zm4.42-5.34a5.58 5.58 0 01.68-2.64 4.55 4.55 0 011.9-2 5.81 5.81 0 012.76-.67 5.18 5.18 0 013.86 1.53 5.28 5.28 0 011.5 3.86 5.34 5.34 0 01-1.51 3.9 5.16 5.16 0 01-3.83 1.55 6 6 0 01-2.72-.64 4.37 4.37 0 01-2-1.89 6.29 6.29 0 01-.64-3zm2.81.15a3.41 3.41 0 00.74 2.36 2.39 2.39 0 003.6 0 3.44 3.44 0 00.73-2.38 3.38 3.38 0 00-.73-2.34 2.39 2.39 0 00-3.6 0 3.41 3.41 0 00-.74 2.36zM135.79 42H133v-5.3a8.59 8.59 0 00-.17-2.17 1.6 1.6 0 00-.57-.77 1.69 1.69 0 00-1-.27 2.22 2.22 0 00-1.28.39 2 2 0 00-.77 1 8.92 8.92 0 00-.21 2.38V42h-2.75V31.63h2.55v1.53a4.17 4.17 0 013.42-1.76 4.07 4.07 0 011.66.33 2.8 2.8 0 011.14.83c.251.346.434.736.54 1.15a8.7 8.7 0 01.15 1.85l.08 6.44zM84 20.33V6h10.65v2.43h-7.73v3.18h7.19V14h-7.19v3.89h8v2.42zm19.9 0v-1.56a4 4 0 01-1.49 1.31 4.2 4.2 0 01-2 .48 3.79 3.79 0 01-1.88-.46 2.68 2.68 0 01-1.2-1.29 5.87 5.87 0 01-.33-2.29V10h2.75v4.77c-.04.896.01 1.794.15 2.68.088.316.282.591.55.78.295.198.645.3 1 .29a2.13 2.13 0 001.25-.39 1.91 1.91 0 00.77-.95c.18-.922.247-1.862.2-2.8V10h2.75v10.33h-2.52zm7.71 0h-2.74V10h2.55v1.48a4.42 4.42 0 011.18-1.38 2.14 2.14 0 011.18-.33 3.44 3.44 0 011.81.52l-.85 2.39a2.39 2.39 0 00-1.29-.45 1.56 1.56 0 00-1 .32 2.24 2.24 0 00-.63 1.15 16.43 16.43 0 00-.23 3.47l.02 3.16zm4.23-5.33a5.57 5.57 0 01.67-2.64 4.63 4.63 0 011.91-2 5.64 5.64 0 012.76-.67 5.19 5.19 0 013.82 1.56 5.28 5.28 0 011.5 3.86A5.35 5.35 0 01125 19a5.14 5.14 0 01-3.82 1.55 6 6 0 01-2.72-.64 4.45 4.45 0 01-2-1.89 6.3 6.3 0 01-.62-3.02zm2.81.15a3.4 3.4 0 00.73 2.36 2.4 2.4 0 003.61 0 3.44 3.44 0 00.73-2.38 3.38 3.38 0 00-.73-2.34 2.4 2.4 0 00-3.61 0 3.4 3.4 0 00-.73 2.35v.01zm9.62-5.15h2.56v1.53c.337-.53.8-.966 1.35-1.27.57-.33 1.22-.5 1.88-.49a3.94 3.94 0 013.07 1.42 5.72 5.72 0 011.26 3.94 6 6 0 01-1.27 4 4 4 0 01-3.12 1.43 3.5 3.5 0 01-1.56-.34 5.51 5.51 0 01-1.44-1.17v5.22h-2.74l.01-14.27zm2.73 5a4 4 0 00.7 2.59 2.12 2.12 0 001.69.83 2 2 0 001.59-.76 4 4 0 00.63-2.52 3.72 3.72 0 00-.65-2.42 2 2 0 00-1.62-.79 2.12 2.12 0 00-1.67.77A3.49 3.49 0 00131 15zm15.37 2l2.73.45a4.41 4.41 0 01-1.66 2.29 4.86 4.86 0 01-2.85.79 4.64 4.64 0 01-4-1.77 5.94 5.94 0 01-1-3.57 5.72 5.72 0 011.35-4 4.46 4.46 0 013.41-1.46 4.6 4.6 0 013.65 1.52 6.77 6.77 0 011.28 4.68h-6.87a2.78 2.78 0 00.66 1.9c.404.444.98.692 1.58.68a1.74 1.74 0 001.09-.35 2.21 2.21 0 00.63-1.16zm.16-2.78a2.65 2.65 0 00-.62-1.81 1.89 1.89 0 00-1.42-.62 1.93 1.93 0 00-1.49.65 2.53 2.53 0 00-.57 1.78h4.1zm7.01-1.1l-2.49-.45a3.9 3.9 0 011.44-2.23 5.32 5.32 0 013-.72 6.7 6.7 0 012.73.43c.53.225.976.614 1.27 1.11.303.78.43 1.616.37 2.45v3.21c-.018.67.025 1.339.13 2a6 6 0 00.49 1.4h-2.71a28.153 28.153 0 01-.27-.81c0-.17-.08-.27-.09-.33a4.89 4.89 0 01-1.51 1 4.25 4.25 0 01-1.71.34 3.51 3.51 0 01-2.52-.87 3.1 3.1 0 01-.5-3.76 2.8 2.8 0 011.17-1.06 9.35 9.35 0 012.18-.64 14.59 14.59 0 002.67-.67v-.28a1.41 1.41 0 00-.39-1.12 2.29 2.29 0 00-1.47-.34 2 2 0 00-1.15.29 2 2 0 00-.64 1.05zm3.67 2.23c-.35.11-.91.25-1.67.42a5.14 5.14 0 00-1.49.47 1.16 1.16 0 00-.54 1 1.35 1.35 0 00.43 1 1.5 1.5 0 001.09.42 2.42 2.42 0 001.42-.49 1.71 1.71 0 00.65-.91c.092-.44.129-.89.11-1.34v-.57zm14.71 4.98h-2.74V15a8 8 0 00-.18-2.17 1.48 1.48 0 00-.57-.77 1.64 1.64 0 00-1-.27 2.22 2.22 0 00-1.28.39 1.9 1.9 0 00-.77 1 8.92 8.92 0 00-.21 2.38v4.7h-2.75V10H165v1.53a4.16 4.16 0 013.42-1.76 4.1 4.1 0 011.66.33 2.8 2.8 0 011.14.83c.252.344.432.735.53 1.15a8.7 8.7 0 01.15 1.85l.02 6.4z" fill="#515560"/></g></svg>