<svg id="logos" xmlns="http://www.w3.org/2000/svg" viewBox="0 0 275 66"><defs><style>.cls-4{fill:#09c}.cls-9{fill:#039}</style></defs><path opacity=".5" fill="#09c" d="M6 42h66v6H6z"/><path fill="#f93" opacity=".5" d="M6 0h66v6H6z"/><path fill="#f93" d="M12 0h54v6H12z"/><path class="cls-4" d="M12 42h54v6H12z"/><path fill="#e4528a" d="M66 6h6v36h-6z"/><path fill="#e4528a" opacity=".5" d="M72 6h6v36h-6z"/><path fill="#390" d="M6 6h6v36H6z"/><path fill="#390" opacity=".5" d="M0 6h6v36H0z"/><path class="cls-4" d="M24 42h12v12H24z"/><path class="cls-4" d="M30 42h6v18h-6zm6 18h6v6h-6z"/><path class="cls-9" d="M12 6h54v36H12z"/><path d="M37.7 14.18l1.31-.96 1.31.96-.5-1.55 1.33-.96h-1.64l-.5-1.56-.5 1.56h-1.64l1.33.96-.5 1.55zm-5.94 1.59l1.32-.96 1.31.96-.5-1.55 1.33-.96h-1.64l-.5-1.56-.51 1.57-1.64-.01 1.33.96-.5 1.55zm-3.02.28l-.51 1.56h-1.64l1.33.96-.49 1.54 1.31-.95 1.31.95-.5-1.54 1.33-.96h-1.64l-.5-1.56zm-1.6 9.03l1.31.96-.49-1.55 1.33-.96h-1.65l-.5-1.57-.5 1.58-1.64-.01 1.33.96-.5 1.55 1.31-.96zm2.1 4.39l-.5-1.57-.51 1.57h-1.64l1.33.96-.49 1.54 1.31-.95 1.31.95-.5-1.54 1.33-.96h-1.64zm4.35 4.34l-.51-1.56-.5 1.57-1.64-.01 1.33.96-.5 1.55 1.32-.96 1.31.96-.5-1.55 1.33-.96h-1.64zm5.92 1.58l-.5-1.57-.5 1.57h-1.64l1.33.96-.5 1.54 1.31-.95 1.31.95-.5-1.54 1.33-.96h-1.64zm5.92-1.58l-.5-1.56-.5 1.57-1.64-.01 1.33.96-.5 1.55 1.31-.96 1.31.96-.5-1.55 1.34-.96h-1.65zm4.35-4.34l-.5-1.57-.5 1.57h-1.64l1.33.96-.5 1.54 1.31-.95 1.31.95-.5-1.54 1.33-.96h-1.64zM53 23.52h-1.64l-.51-1.57-.5 1.57h-1.64l1.34.95-.5 1.55 1.3-.96 1.32.96-.5-1.55 1.33-.95zm-5.03-3.43l1.31-.95 1.31.95-.5-1.54 1.33-.96h-1.64l-.5-1.56-.5 1.57-1.64-.01 1.33.96-.5 1.54zm-3.02-8.39l-.5 1.57-1.64-.01 1.33.96-.5 1.55 1.31-.96 1.31.96-.5-1.55 1.33-.96h-1.64l-.5-1.56z" fill="#fc0"/><path class="cls-9" d="M94.46 42.17c-2.89 0-4.47-2.28-4.47-5.3s1.58-5.29 4.47-5.29 4.47 2.27 4.47 5.29-1.58 5.3-4.47 5.3zm0-8.94c-1.6 0-2.4 1.43-2.4 3.62s.8 3.64 2.4 3.64 2.4-1.45 2.4-3.64-.8-3.62-2.4-3.62zm11.37-4.46c-1.17 0-2 .49-2 1.76v1.26h2.11v1.55h-2.11V42h-2v-8.66h-1.34v-1.55h1.34v-1.26c0-2.34 1.58-3.42 3.68-3.42a5.76 5.76 0 01.64 0v1.62zm10.65 13.33c-1.79 0-2.79-1-2.79-3v-5.76h-1.38v-1.55h1.38v-2.36l2-.62v3h2.05v1.55h-2.05V39a1.2 1.2 0 001.35 1.29 1.81 1.81 0 00.7-.14v1.72a3.28 3.28 0 01-1.26.23zm9.42-.1v-6.79c0-1.3-.83-1.94-2.19-1.94a3.78 3.78 0 00-1.81.47V42h-2.06V27.15h2.06v5a5.51 5.51 0 012.28-.55c2.38 0 3.8 1.21 3.8 3.42V42zm13.1-5.17l-6.76 1a2.87 2.87 0 003.11 2.75 6.3 6.3 0 002.81-.62l.61 1.55a8.38 8.38 0 01-3.55.71c-3.21 0-5-2.05-5-5.3s1.73-5.29 4.58-5.29c2.65 0 4.21 1.74 4.21 4.48-.01.19-.01.46-.01.72zm-4.2-3.73c-1.59 0-2.63 1.2-2.66 3.32l4.92-.68c-.06-1.74-.9-2.64-2.26-2.64zm11.65 8.9V28.3h7.17v1.79h-5.07v4h4.62v1.76h-4.62v4.3h5.07V42zm13.35.17c-2.68 0-4.11-1.11-4.11-3.66v-6.72h2.05v6.76c0 1.3.7 1.93 2.06 1.93a5 5 0 001.81-.29v-8.4h2.06v9.67a9.64 9.64 0 01-3.87.71zm11.01-8.79a4.15 4.15 0 00-1-.11 4.43 4.43 0 00-1.6.26V42h-2.06v-9.7a10.74 10.74 0 013.94-.72 6.38 6.38 0 011.16.08zm5.78 8.79c-2.89 0-4.48-2.28-4.48-5.3s1.59-5.29 4.48-5.29 4.47 2.27 4.47 5.29-1.58 5.3-4.47 5.3zm0-8.94c-1.61 0-2.4 1.43-2.4 3.62s.79 3.64 2.4 3.64S179 39 179 36.85s-.81-3.62-2.41-3.62zm10.25 8.85a6.24 6.24 0 01-1.66-.24V46h-2.06V32.3a8.33 8.33 0 013.5-.72c3.17 0 4.94 2 4.94 5.22s-1.64 5.28-4.72 5.28zm-.19-8.87a4.17 4.17 0 00-1.47.26v6.78a4.86 4.86 0 001.47.23c1.87 0 2.85-1.55 2.85-3.68s-1-3.59-2.85-3.59zM202 36.83l-6.76 1a2.88 2.88 0 003.12 2.75 6.33 6.33 0 002.81-.62l.61 1.55a8.45 8.45 0 01-3.55.71c-3.21 0-5-2.05-5-5.3s1.74-5.29 4.59-5.29c2.64 0 4.21 1.74 4.21 4.48.03.19.03.46-.03.72zm-4.23-3.73c-1.58 0-2.62 1.2-2.66 3.32l4.93-.68c.02-1.74-.87-2.64-2.23-2.64zm10.13 9.07c-2.93 0-4.4-1.18-4.4-3.19 0-2.83 3-3.34 6.1-3.51v-.64c0-1.28-.85-1.73-2.15-1.73a7.46 7.46 0 00-2.82.62l-.53-1.42a9.51 9.51 0 013.55-.72c2.44 0 3.91 1 3.91 3.46v6.42a9 9 0 01-3.66.71zm1.7-5.32c-2.08.11-4.15.28-4.15 2.1 0 1.07.83 1.73 2.39 1.73a5.27 5.27 0 001.76-.26zM220.06 42v-6.8c0-1.19-.72-1.92-2.13-1.92a5.31 5.31 0 00-1.87.3V42H214v-9.7a10.41 10.41 0 013.91-.72c2.85 0 4.23 1.25 4.23 3.4v7zm14.2.16c-2.57 0-4.55-1.53-4.55-4.18V28.3h2.13V38a2.42 2.42 0 004.84 0v-9.7h2.13V38c0 2.63-1.98 4.16-4.55 4.16zm13.37-.16v-6.8c0-1.19-.72-1.92-2.13-1.92a5.31 5.31 0 00-1.87.3V42h-2.06v-9.7a10.41 10.41 0 013.91-.72c2.85 0 4.23 1.25 4.23 3.4v7zm5.42-12.06a1.17 1.17 0 111.23-1.17 1.2 1.2 0 01-1.23 1.17zm-1 12V31.79h2.08V42zm8.44.23c-2.89 0-4.47-2.28-4.47-5.3s1.58-5.29 4.47-5.29 4.51 2.27 4.51 5.29-1.62 5.3-4.51 5.3zm0-8.94c-1.6 0-2.4 1.43-2.4 3.62s.8 3.64 2.4 3.64 2.4-1.45 2.4-3.64-.79-3.62-2.4-3.62zM272.9 42v-6.8c0-1.19-.72-1.92-2.13-1.92a5.31 5.31 0 00-1.87.3V42h-2.06v-9.7a10.41 10.41 0 013.91-.72c2.85 0 4.22 1.25 4.22 3.4v7zm-179-26.54a10.83 10.83 0 01-1.43-.11v5.51h-2.1V7.7a9.26 9.26 0 013.78-.7c3.26 0 5.06 1.66 5.06 4.27 0 2.41-1.85 4.19-5.31 4.19zm.27-6.84a5 5 0 00-1.7.29v4.79a8.42 8.42 0 001.36.1c2.13 0 3.28-1 3.28-2.57s-1.04-2.61-2.94-2.61zm11.25 12.44c-2.68 0-4.12-1.11-4.12-3.66v-6.72h2.06v6.76c0 1.3.7 1.92 2.06 1.92a5 5 0 001.81-.28v-8.4h2.06v9.67a9.64 9.64 0 01-3.87.71zm9.93 0a8.28 8.28 0 01-3.41-.71V6h2v5a5.17 5.17 0 012-.42c2.62 0 4.39 1.89 4.39 5 .04 3.78-1.94 5.48-4.98 5.48zm.27-8.92a4 4 0 00-1.63.33v6.69a4.23 4.23 0 001.48.26c1.64 0 2.85-1.13 2.85-3.74 0-2.22-1.06-3.54-2.7-3.54zm7.1 8.72V6h2.08v14.86zm5.87-12.03a1.17 1.17 0 111.23-1.17 1.2 1.2 0 01-1.23 1.17zm-1 12V10.68h2.08v10.18zm8.84.23c-2.27 0-4.48-1.62-4.48-5.3s2.21-5.29 4.48-5.29a4.67 4.67 0 012.6.7l-.68 1.49a2.91 2.91 0 00-1.66-.49c-1.36 0-2.6 1.08-2.6 3.57s1.28 3.59 2.6 3.59a2.91 2.91 0 001.66-.49l.68 1.53a4.56 4.56 0 01-2.6.69zm8.57 0c-2.92 0-4.4-1.18-4.4-3.19 0-2.83 3-3.34 6.1-3.51v-.64c0-1.28-.85-1.74-2.15-1.74a7.45 7.45 0 00-2.81.63l-.53-1.42a9.46 9.46 0 013.55-.72c2.43 0 3.9.95 3.9 3.46v6.42a8.9 8.9 0 01-3.66.71zm1.7-5.32c-2.08.11-4.15.28-4.15 2.1 0 1.07.83 1.73 2.4 1.73a5.21 5.21 0 001.75-.26zm7.97 5.26c-1.79 0-2.79-1-2.79-3v-5.77h-1.38v-1.55h1.38V8.32l2-.62v3h2v1.55h-2v5.66a1.2 1.2 0 001.36 1.29 1.8 1.8 0 00.76-.2v1.72a3.28 3.28 0 01-1.33.28zm4.46-12.17a1.17 1.17 0 111.23-1.17 1.2 1.2 0 01-1.23 1.17zm-1 12V10.68h2.08v10.18zm8.87.23c-2.89 0-4.48-2.28-4.48-5.3s1.59-5.29 4.48-5.29 4.47 2.27 4.47 5.29-1.62 5.3-4.47 5.3zm0-8.94c-1.61 0-2.4 1.43-2.4 3.62s.79 3.64 2.4 3.64 2.39-1.45 2.39-3.64-.82-3.62-2.39-3.62zm12.77 8.74v-6.8c0-1.19-.72-1.92-2.13-1.92a5.31 5.31 0 00-1.87.3v8.42h-2.06v-9.67a10.41 10.41 0 013.91-.72c2.85 0 4.22 1.25 4.22 3.4v7zm7.31.2a7.35 7.35 0 01-3.17-.71l.69-1.59a5.7 5.7 0 002.42.66c1.11 0 1.85-.55 1.85-1.4s-.77-1.28-1.81-1.66c-1.36-.51-2.89-1.13-2.89-3 0-1.68 1.3-2.85 3.57-2.85a6 6 0 013 .72l-.64 1.44A4.48 4.48 0 00188 12c-1.07 0-1.68.57-1.68 1.3 0 .93.76 1.25 1.76 1.63 1.42.53 3 1.11 3 3.09s-1.45 3.04-4 3.04zm16.16 0c-3.53 0-5.26-3.11-5.26-7s1.73-7 5.26-7 5.27 3.12 5.27 7-1.74 7-5.27 7zm0-12.19c-2.06 0-3.13 2.17-3.13 5.15s1.07 5.16 3.13 5.16 3.13-2.18 3.13-5.18-1.07-5.13-3.13-5.13zm10.35 11.99h-2v-8.63h-1.34v-1.55h1.34V9.42c0-2.34 1.59-3.42 3.68-3.42a5.76 5.76 0 01.64 0v1.66h-.28c-1.17 0-2 .49-2 1.76v1.26h4.27V9.42c0-2.34 1.58-3.42 3.68-3.42a5.76 5.76 0 01.64 0v1.66h-.28c-1.17 0-2 .49-2 1.76v1.26H226v10.18h-2v-8.61h-4.07v8.61h-2v-8.63h-4.27zM224.78 9a1.18 1.18 0 01-1.22-1.16A1.23 1.23 0 11224.78 9zm8.45 12.06c-2.27 0-4.47-1.62-4.47-5.3s2.2-5.29 4.47-5.29a4.67 4.67 0 012.6.7l-.67 1.49a3 3 0 00-1.67-.49c-1.35 0-2.6 1.08-2.6 3.57s1.28 3.59 2.6 3.59a3 3 0 001.67-.49l.67 1.53a4.56 4.56 0 01-2.6.69zm12.69-5.34l-6.76 1a2.88 2.88 0 003.12 2.75 6.37 6.37 0 002.81-.62l.6 1.55a8.38 8.38 0 01-3.55.71c-3.21 0-5-2-5-5.3s1.74-5.29 4.59-5.29c2.64 0 4.21 1.74 4.21 4.48 0 .19 0 .46-.02.72zM241.69 12c-1.59 0-2.62 1.21-2.66 3.33l4.92-.68c-.01-1.8-.9-2.65-2.26-2.65z"/></svg>