<svg id="Layer_1" data-name="Layer 1" xmlns="http://www.w3.org/2000/svg" viewBox="0 0 489.36 100"><defs><style>.cls-6{fill:#390}.cls-2{opacity:.5}.cls-2,.cls-3{fill:#69c}</style></defs><path opacity=".5" fill="#390" d="M25.08 58.05h59.06v5.37H25.08z"/><path class="cls-2" d="M25.08 20.47h59.06v5.37H25.08z"/><path class="cls-3" d="M30.45 20.47h48.32v5.37H30.45z"/><path fill="#007d64" d="M78.77 25.84h5.37v32.22h-5.37z"/><path fill="#007d64" opacity=".5" d="M84.14 25.84h5.37v32.22h-5.37z"/><path class="cls-3" d="M25.08 25.84h5.37v32.22h-5.37z"/><path class="cls-2" d="M19.71 25.84h5.37v32.22h-5.37z"/><path class="cls-6" d="M51.92 63.42h26.85v-5.37H30.45v5.37h10.73v5.37h5.37v5.37h5.37V63.42z"/><path class="cls-6" d="M51.92 74.16h5.37v5.37h-5.37z"/><path fill="#039" d="M30.45 25.84h48.32v32.22H30.45z"/><path d="M53.44 33.15l1.17-.85 1.18.85-.45-1.38 1.19-.86h-1.47l-.45-1.4-.45 1.4H52.7l1.19.86-.45 1.38zm-5.31 1.43l1.18-.86 1.17.86-.45-1.38 1.19-.86h-1.46l-.45-1.4-.45 1.4h-1.47l1.19.86-.45 1.38zm-2.71.25l-.45 1.4H43.5l1.2.86-.45 1.38 1.17-.86 1.18.86-.45-1.38 1.19-.86h-1.47l-.45-1.4zM44 42.91l1.17.86-.45-1.39 1.2-.85h-1.47l-.45-1.4-.45 1.4h-1.47l1.19.85-.45 1.39 1.18-.86zm1.87 3.93l-.45-1.4-.45 1.4H43.5l1.2.86-.45 1.38 1.17-.86 1.18.86-.45-1.38 1.19-.86h-1.47zm3.89 3.89l-.45-1.4-.44 1.4H47.4l1.19.86-.45 1.38 1.17-.86 1.18.86-.45-1.38 1.19-.86h-1.47zm5.3 1.41l-.44-1.4-.45 1.4H52.7l1.19.86-.45 1.38 1.18-.86 1.17.86-.45-1.38 1.19-.86h-1.47zm5.31-1.41l-.45-1.4-.45 1.4H58l1.19.86-.45 1.38 1.18-.86 1.17.86-.45-1.38 1.2-.86h-1.47zm3.89-3.89l-.45-1.4-.45 1.4h-1.47l1.19.86-.45 1.38 1.18-.86 1.17.86-.45-1.38 1.2-.86h-1.47zm2.88-5.33h-1.47l-.45-1.4-.45 1.4H63.3l1.19.86-.45 1.38 1.18-.85 1.17.85-.45-1.38 1.2-.86zm-4.51-3.06l1.18-.85 1.17.85-.45-1.38 1.2-.85h-1.47l-.45-1.41-.45 1.41h-1.47l1.19.85-.45 1.38zm-2.7-7.51l-.45 1.4h-1.47l1.19.86-.44 1.38 1.17-.86 1.17.86-.44-1.38 1.19-.86h-1.47l-.45-1.4z" fill="#fc0"/><path class="cls-6" d="M168.5 39.23h9v9h-9zM109 32.41v25.46h-5.92V32.41h-6.43v-4.95h18.73v4.95zM136.17 47l-14.57 2c.5 3.32 2.94 5 6.26 5a14.52 14.52 0 006.3-1.43l1.64 4.29a20.06 20.06 0 01-8.36 1.63C120 58.37 116 53.5 116 46.53s3.91-11.81 10.5-11.81c6.26 0 9.75 4.12 9.75 10.29a14.29 14.29 0 01-.08 1.99zm-9.78-8.07c-3 0-5.09 2.19-5.17 6.43l9.49-1.3c0-3.46-1.71-5.18-4.32-5.18zm24.69 19.44c-7.31 0-11.3-4.32-11.3-11.67 0-7 3.66-11.68 10.59-11.68a11 11 0 013.23.46V24.89h5.76v31.85a19.41 19.41 0 01-8.28 1.63zm2.52-18.61a8 8 0 00-2.64-.42c-3.57 0-5.46 3-5.46 7.27 0 4.58 1.93 7.27 5.46 7.27a7 7 0 002.64-.46z"/><path d="M194 58.29a17.85 17.85 0 01-7.68-1.55V28.59A17.26 17.26 0 01194 27c7.23 0 13 5 13 15.62s-5.77 15.67-13 15.67zm.05-29a14.31 14.31 0 00-5.17.84v25.09a13.48 13.48 0 005.17.84c5.63 0 10.33-4.07 10.33-13.4s-4.7-13.4-10.33-13.4zm36.2 16.23l-15.88 2.35c.34 5.55 3.45 8.36 8.24 8.36a13.24 13.24 0 006.13-1.43l.84 1.94a15.17 15.17 0 01-7.06 1.55c-6.47 0-10.54-4.08-10.54-11.76 0-7 3.65-11.72 9.58-11.72 5.25 0 8.73 3.4 8.73 9.36 0 .42 0 .83-.04 1.35zm-8.69-8.74c-4.46 0-7.19 3.66-7.31 9.2l13.65-2c-.04-4.89-2.56-7.2-6.34-7.2zm23.6 21.09h-2.81L234 35.23h2.68l6.05 17a32.5 32.5 0 011 3.28h.08c.13-.51.63-2.27 1-3.28l6.05-17h2.69zm30.12-12.35l-15.88 2.35c.33 5.55 3.44 8.36 8.23 8.36a13.21 13.21 0 006.13-1.43l.84 1.94a15.16 15.16 0 01-7.05 1.55c-6.47 0-10.55-4.08-10.55-11.76 0-7 3.66-11.72 9.58-11.72 5.25 0 8.74 3.4 8.74 9.36 0 .42 0 .83-.04 1.35zm-8.7-8.74c-4.45 0-7.18 3.66-7.31 9.2l13.65-2c-.04-4.89-2.56-7.2-6.34-7.2zm14.7 21.09v-33h2.48v33zm17.72.42c-6.13 0-9.32-5.08-9.32-11.76s3.19-11.72 9.32-11.72 9.33 5 9.33 11.72-3.15 11.76-9.33 11.76zm0-21.42c-4.66 0-6.84 4.11-6.84 9.66s2.18 9.66 6.84 9.66 6.85-4.12 6.85-9.66-2.14-9.66-6.85-9.66zm22 21.29a14 14 0 01-4.41-.67v9.41h-2.48V36.36a15.49 15.49 0 016.81-1.55c6.68 0 10.54 4.62 10.54 11.42S327.69 58.16 321 58.16zm0-21.29a11.16 11.16 0 00-4.37.84v17.72a14.79 14.79 0 004.28.67c5.3 0 8.11-4.24 8.11-9.87s-2.89-9.36-8.02-9.36zm33.57 8.65l-15.88 2.35c.34 5.55 3.45 8.36 8.23 8.36a13.25 13.25 0 006.14-1.43l.84 1.94a15.17 15.17 0 01-7.06 1.55c-6.47 0-10.54-4.08-10.54-11.76 0-7 3.65-11.72 9.57-11.72 5.26 0 8.74 3.4 8.74 9.36 0 .42 0 .83-.04 1.35zm-8.7-8.74c-4.45 0-7.18 3.66-7.3 9.2l13.65-2c-.04-4.89-2.56-7.2-6.35-7.2zm23.69.22a11 11 0 00-1.68-.12 13.5 13.5 0 00-5 .88v20.11h-2.48V36.36a19.67 19.67 0 017.82-1.55 16.59 16.59 0 011.93.08zm25.03 21.29a17.85 17.85 0 01-7.68-1.55V28.59a17.23 17.23 0 017.68-1.59c7.23 0 13 5 13 15.62s-5.77 15.67-13 15.67zm.05-29a14.31 14.31 0 00-5.17.84v25.09a13.48 13.48 0 005.17.84c5.62 0 10.33-4.07 10.33-13.4s-4.71-13.4-10.33-13.4zm27.25 29c-6.13 0-9.32-5.08-9.32-11.76s3.19-11.72 9.32-11.72 9.33 5 9.33 11.72-3.22 11.76-9.33 11.76zm0-21.42c-4.66 0-6.84 4.11-6.84 9.66s2.18 9.66 6.84 9.66 6.85-4.12 6.85-9.66-2.18-9.66-6.85-9.66zm23.73 21.42c-4.58 0-9.53-3.32-9.53-11.76s5-11.72 9.53-11.72a10 10 0 015.38 1.55l-.88 1.85a7.94 7.94 0 00-4.33-1.3c-3.44 0-7.18 2.52-7.18 9.62s3.78 9.62 7.18 9.62a7.94 7.94 0 004.33-1.31l.88 1.9a9.84 9.84 0 01-5.38 1.55zm15.84 0a14.17 14.17 0 01-6.46-1.55l1-1.94a12.18 12.18 0 005.47 1.43c3.31 0 5.54-1.64 5.54-4.2 0-2.73-2.18-3.74-5.13-4.83-3.36-1.26-6.25-2.65-6.25-6.55 0-3.28 2.6-5.84 7.18-5.84a11.66 11.66 0 016 1.55l-1 1.85a9.42 9.42 0 00-4.83-1.39c-3.07 0-4.83 1.73-4.83 3.83 0 2.73 2 3.61 4.83 4.66 3.53 1.34 6.59 2.64 6.59 6.76-.05 3.74-3.11 6.22-8.11 6.22z" fill="#737d82"/></svg>