<svg xmlns="http://www.w3.org/2000/svg" width="32" height="32" viewBox="0 0 32 32">
  <g id="Group_307025" data-name="Group 307025" transform="translate(-597 -727)">
    <g id="Group_306925" data-name="Group 306925" transform="translate(597 727)">
      <g id="Ellipse_13194" data-name="Ellipse 13194" fill="#333" stroke="#fff" stroke-width="1">
        <circle cx="16" cy="16" r="16" stroke="none"/>
        <circle cx="16" cy="16" r="15.5" fill="none"/>
      </g>
      <g id="Group_306923" data-name="Group 306923" transform="translate(6 6)">
        <path id="Path_79309" data-name="Path 79309" d="M-20.312,611.474a10.025,10.025,0,0,0-10.134,9.811,10.023,10.023,0,0,0,9.756,10.186,10.023,10.023,0,0,0,10.239-9.7A10.023,10.023,0,0,0-20.312,611.474Zm-.208,16.887a6.964,6.964,0,0,1-6.811-6.8,6.972,6.972,0,0,1,6.851-6.977,6.983,6.983,0,0,1,6.923,6.906A6.971,6.971,0,0,1-20.52,628.361Z" transform="translate(30.447 -611.473)" fill="#fff"/>
        <path id="Path_79310" data-name="Path 79310" d="M-21.4,619.05c.83.156,1.4.622,1.369,1.469a1.321,1.321,0,0,1-1.434,1.36,1.324,1.324,0,0,1-1.361-1.434A1.427,1.427,0,0,1-21.4,619.05Z" transform="translate(31.435 -610.49)" fill="#fff"/>
      </g>
    </g>
  </g>
</svg>
