<svg xmlns="http://www.w3.org/2000/svg" width="15.999" height="17.998" viewBox="0 0 15.999 17.998">
  <g id="Group_166177" data-name="Group 166177" transform="translate(1.001 1.002)">
    <path id="Union_46" data-name="Union 46" d="M-16371.809,16598.307l-7.99-8a1,1,0,0,1,0-1.412l7.99-8a.994.994,0,0,1,1.412,0,1,1,0,0,1,0,1.412l-6.284,6.295h11.587a1,1,0,0,1,1,1,1,1,0,0,1-1,1h-11.586l6.283,6.291a1,1,0,0,1,0,1.412,1,1,0,0,1-.709.295A.993.993,0,0,1-16371.809,16598.307Z" transform="translate(16379.092 -16581.605)" fill="#f8f7f4"/>
  </g>
</svg>
