<svg xmlns="http://www.w3.org/2000/svg" width="15.999" height="17.998" viewBox="0 0 15.999 17.998">
  <g id="Group_166177" data-name="Group 166177" transform="translate(0.999 1.002)">
    <path id="Union_45" data-name="Union 45" d="M-16375.6,16838.311a1,1,0,0,1,0-1.416l6.285-6.293h-11.588a1,1,0,0,1-1-1,1,1,0,0,1,1-1h11.585l-6.282-6.293a1,1,0,0,1,0-1.416,1,1,0,0,1,1.412,0l7.991,8a1.006,1.006,0,0,1,0,1.416l-7.991,8a1,1,0,0,1-.706.291A1,1,0,0,1-16375.6,16838.311Z" transform="translate(16380.91 -16821.605)" fill="#f8f7f4"/>
  </g>
</svg>
