<?xml version="1.0" encoding="UTF-8"?>
<svg xmlns="http://www.w3.org/2000/svg" onmouseup="{ if(window.parent.document.onmouseup) window.parent.document.onmouseup(arguments[0]);}" viewBox="0 0 40 27.273" height="27.273" width="40"><path data-cppathid="10000" fill="#163EE5" transform="translate(-103.602 -112)" d="M136.954,139.273a6.651,6.651,0,0,0,6.648-6.648v-4.886a6.651,6.651,0,0,0-6.648-6.648h-3.2a59.526,59.526,0,0,1,1.634-7.926.953.953,0,0,0-.881-1.165,4.76,4.76,0,0,0-3.338,1.932,20.254,20.254,0,0,0-2.8,4.105c-1.684,3.16-2.955,6.8-2.955,9.417v5.171a6.652,6.652,0,0,0,6.648,6.648Zm-21.818,0a6.652,6.652,0,0,0,6.648-6.648v-4.886a6.652,6.652,0,0,0-6.648-6.648h-3.2a59.528,59.528,0,0,1,1.634-7.926.953.953,0,0,0-.881-1.165,4.759,4.759,0,0,0-3.338,1.932,20.242,20.242,0,0,0-2.8,4.105c-1.684,3.16-2.954,6.8-2.954,9.417v5.171a6.651,6.651,0,0,0,6.648,6.648Z" data-name="Path 89898" id="Path_89898"/></svg>